<svg xmlns="http://www.w3.org/2000/svg" xmlns:xlink="http://www.w3.org/1999/xlink" viewBox="0 0 50 50"><defs><style>.cls-1{isolation:isolate;}.cls-2{fill:url(#무제_그라디언트_13);}.cls-3,.cls-4{fill:#040000;}.cls-3{mix-blend-mode:multiply;}.cls-5,.cls-6{fill:#fff;}.cls-6,.cls-7{opacity:0.6;}.cls-7{fill:url(#무제_그라디언트_6);}</style><linearGradient id="무제_그라디언트_13" x1="25" y1="50" x2="25" gradientUnits="userSpaceOnUse"><stop offset="0" stop-color="#664497"/><stop offset="1" stop-color="#e85377"/></linearGradient><linearGradient id="무제_그라디언트_6" x1="27.09" y1="41.06" x2="27.09" y2="13.11" gradientUnits="userSpaceOnUse"><stop offset="0" stop-color="#fff"/><stop offset="1" stop-color="#fff"/></linearGradient></defs><title>자산 3</title><g class="cls-1"><g id="레이어_2" data-name="레이어 2"><g id="head"><circle class="cls-2" cx="25" cy="25" r="25"/><polygon class="cls-3" points="32.68 29.44 32.69 29.44 32.69 29.43 32.68 29.43 32.68 29.44"/><path class="cls-4" d="M28,24.73h0Z"/><circle class="cls-5" cx="17.49" cy="17.5" r="4.4"/><path class="cls-6" d="M38.74,23.63a2.37,2.37,0,0,1-2.36-2.24,3.42,3.42,0,0,1-1,2.26c-.31.3-1.2.85-3.75,1a22,22,0,0,1-2.2.05H24.73c-.65,0-1.55,0-2.54.07-3.19.23-5.32,1-6.73,2.39a8.08,8.08,0,0,0-2.37,5.66,2.36,2.36,0,0,1,4.71-.21,3.39,3.39,0,0,1,1-2.13c.3-.3,1.2-.85,3.74-1,.62,0,1.2-.06,1.69-.06H30c.58,0,1.29,0,2-.08,3.18-.23,5.32-1,6.72-2.39a8.07,8.07,0,0,0,2.37-5.39A2.36,2.36,0,0,1,38.74,23.63Z"/><path class="cls-7" d="M32.79,17.8a2.36,2.36,0,0,1-.2-4.69,8.06,8.06,0,0,0-5.37,2.36c-2.24,2.24-2.55,6.43-2.48,9.26h0v4.7c.09,2.76-.35,5.19-1.1,5.93a3.34,3.34,0,0,1-2.24,1,2.36,2.36,0,0,1,.19,4.69A8.06,8.06,0,0,0,27,38.7c2.24-2.24,2.56-6.43,2.48-9.26h0v-4.7c-.08-2.76.35-5.19,1.1-5.93A3.36,3.36,0,0,1,32.79,17.8Z"/><path class="cls-5" d="M23.63,38.72a2.36,2.36,0,0,0-2.24-2.35h-.3a3.37,3.37,0,0,1-2.3-1h0a3.42,3.42,0,0,1-1-2.19c0-.07,0-.15,0-.23s0-.2,0-.3a2.36,2.36,0,0,0-4.71.21V33A8.11,8.11,0,0,0,21,41.07h.61A2.36,2.36,0,0,0,23.63,38.72Z"/><path class="cls-5" d="M41.08,21a8.12,8.12,0,0,0-7.87-7.87h-.62a2.36,2.36,0,0,0,.2,4.69h.29a3.4,3.4,0,0,1,2.31,1h0a3.36,3.36,0,0,1,1,2.3.49.49,0,0,1,0,.12.91.91,0,0,1,0,.17,2.36,2.36,0,0,0,4.7.19c0-.12,0-.24,0-.36S41.08,21.05,41.08,21Z"/></g></g></g></svg>