<svg version="1.1" id="레이어_1" xmlns="http://www.w3.org/2000/svg" xmlns:xlink="http://www.w3.org/1999/xlink" x="0px"
	 y="0px" viewBox="0 0 311.7 39.6" style="enable-background:new 0 0 311.7 39.6;" xml:space="preserve">
<style type="text/css">
	.st0{fill:#191919;}
	.st1{fill:#717171;}
	.st2{fill:#F29739;}
	.st3{fill:#8DC33E;}
	.st4{fill:#2CA6E0;}
</style>
<g>
	<g>
		<g>
			<path class="st0" d="M134.3,25.7h-10.6v6.7h-2.8v-6.7h-10.5v-2.6h23.9V25.7z M111.7,14.5c0-4,4.2-6.4,10.6-6.4s10.6,2.4,10.6,6.4
				c0,4-4.2,6.4-10.6,6.4S111.7,18.5,111.7,14.5z M114.6,14.5c0,2.5,3.2,3.9,7.8,3.9s7.8-1.4,7.8-3.9s-3.2-3.9-7.8-3.9
				S114.6,12,114.6,14.5z"/>
			<path class="st0" d="M138.7,18.1h10.7v-6.8h-10.8V8.8h13.5v11.9h-10.7v7.2h7c2.3,0,4.7-0.4,6.2-1.1v2.5c-1.5,0.7-3.9,1.1-6.3,1.1
				h-9.7V18.1z M156.9,7.9h2.8v23.9h-2.8V7.9z"/>
			<path class="st0" d="M188.2,18.9v2.2h-23.9v-2.2h10.6v-2.5H166V8.2h20.5v2.2h-17.7v3.8h18v2.2h-9.2v2.5H188.2z M186.7,27.5
				c0,3.3-4.8,4.4-10.5,4.4s-10.5-1.1-10.5-4.4c0-3.3,4.8-4.4,10.5-4.4S186.7,24.3,186.7,27.5z M183.8,27.5c0-1.6-3.7-2.2-7.6-2.2
				c-3.9,0-7.6,0.6-7.6,2.2c0,1.7,3.7,2.2,7.6,2.2C180.1,29.7,183.8,29.2,183.8,27.5z"/>
			<path class="st0" d="M198,27.9c2,0,4.1-0.3,5.6-0.9v2.4c-1.4,0.6-3.7,1-5.9,1H192V8.7h2.7v19.2H198z M205.8,8.1h2.6v23.4h-2.6
				V19.3h-6.3v-2.6h6.3V8.1z M214.2,7.9v23.9h-2.6V7.9H214.2z"/>
			<path class="st0" d="M226.6,11c-1.4,0-2.5,0.3-3.3,0.8c-0.8,0.6-1.2,1.3-1.2,2.1c0,0.5,0.1,0.9,0.4,1.3c0.2,0.4,0.6,0.7,1,1
				c0.4,0.3,0.9,0.6,1.5,0.8c0.6,0.2,1.2,0.5,1.9,0.7c1.1,0.4,2.2,0.8,3.2,1.3c1,0.5,1.8,1,2.5,1.6c0.7,0.6,1.3,1.3,1.7,2
				c0.4,0.8,0.6,1.7,0.6,2.7c0,1.1-0.2,2-0.6,2.8c-0.4,0.8-1,1.5-1.7,2.1c-0.7,0.6-1.6,1-2.6,1.3c-1,0.3-2.2,0.4-3.4,0.4
				c-1.6,0-2.9-0.2-3.9-0.5s-2-0.7-2.8-1.2c-0.1-0.1-0.3-0.1-0.6-0.1c-0.3,0-0.5-0.1-0.6-0.3c-0.4-0.6-0.6-1.2-0.8-2s-0.3-1.4-0.3-2
				c0-0.2,0.1-0.4,0.2-0.6c0.2-0.2,0.3-0.4,0.5-0.5c0.2-0.1,0.4-0.2,0.6-0.2s0.3,0,0.3,0.1c0.6,1.4,1.4,2.5,2.5,3.3s2.5,1.2,4.3,1.3
				c1.6,0,2.7-0.2,3.5-0.7c0.8-0.5,1.2-1.3,1.1-2.4c0-0.5-0.2-1-0.5-1.4s-0.7-0.8-1.2-1.1s-1-0.6-1.6-0.9c-0.6-0.3-1.2-0.5-1.8-0.8
				c-1.1-0.4-2.1-0.9-3-1.3c-0.9-0.4-1.8-0.9-2.5-1.5c-0.7-0.5-1.3-1.2-1.7-1.9c-0.4-0.7-0.6-1.6-0.6-2.6c0-1,0.2-1.8,0.7-2.6
				s1-1.4,1.8-2c0.7-0.5,1.6-1,2.6-1.2c1-0.3,2.1-0.4,3.2-0.4c1.4,0,2.7,0.1,3.8,0.4s2.1,0.7,2.9,1.2c0.1,0,0.2,0.1,0.2,0.1
				c0.1,0,0.1,0.1,0.2,0.2c0.1,0.3,0.2,0.6,0.3,1s0.2,0.8,0.3,1.2c0.1,0.4,0.1,0.8,0.2,1.2c0,0.4,0.1,0.7,0.1,0.9
				c0,0.2-0.1,0.4-0.2,0.5s-0.3,0.1-0.5,0.1c-0.2,0-0.4,0-0.5-0.1c-0.2-0.1-0.2-0.1-0.2-0.1c-0.2-0.8-0.5-1.4-0.9-1.9
				c-0.4-0.5-0.9-0.9-1.5-1.3c-0.6-0.3-1.2-0.6-1.8-0.7S227.2,11,226.6,11z"/>
			<path class="st0" d="M250.3,31.9c-1.7,0.1-3.3-0.1-4.8-0.6c-1.5-0.5-2.7-1.1-3.8-2c-1.1-0.9-1.9-1.9-2.6-3.2s-1-2.7-1.1-4.3
				c-0.1-1.9,0.1-3.7,0.6-5.3c0.5-1.6,1.3-3,2.4-4.2c1.1-1.2,2.3-2.1,3.8-2.8c1.5-0.7,3.1-1.1,4.8-1.2c1.7-0.1,3.3,0.1,4.8,0.6
				s2.7,1.1,3.8,2s1.9,2,2.6,3.2c0.6,1.3,1,2.7,1.1,4.3c0.1,1.9-0.1,3.7-0.6,5.3c-0.5,1.6-1.3,3-2.4,4.2c-1.1,1.2-2.3,2.2-3.8,2.9
				C253.6,31.4,252,31.8,250.3,31.9z M251.9,29c1-0.2,1.9-0.5,2.7-1s1.4-1.2,1.9-2c0.5-0.8,0.8-1.8,1-2.8c0.2-1.1,0.2-2.2,0-3.5
				c-0.2-1.4-0.6-2.7-1.2-3.9c-0.6-1.2-1.3-2.1-2.1-2.9c-0.9-0.8-1.8-1.3-2.9-1.7s-2.2-0.4-3.4-0.3c-1,0.2-1.9,0.5-2.7,1
				c-0.8,0.5-1.4,1.2-1.9,2c-0.5,0.8-0.8,1.8-1,2.9c-0.2,1.1-0.2,2.2,0,3.5c0.2,1.4,0.6,2.7,1.2,3.9c0.6,1.1,1.3,2.1,2.1,2.9
				s1.8,1.3,2.8,1.7C249.6,29.1,250.7,29.2,251.9,29z"/>
			<path class="st0" d="M274,11c-1.4,0-2.5,0.3-3.3,0.8c-0.8,0.6-1.2,1.3-1.2,2.1c0,0.5,0.1,0.9,0.4,1.3c0.2,0.4,0.6,0.7,1,1
				c0.4,0.3,0.9,0.6,1.5,0.8c0.6,0.2,1.2,0.5,1.9,0.7c1.1,0.4,2.2,0.8,3.2,1.3c1,0.5,1.8,1,2.5,1.6c0.7,0.6,1.3,1.3,1.7,2
				c0.4,0.8,0.6,1.7,0.6,2.7c0,1.1-0.2,2-0.6,2.8c-0.4,0.8-1,1.5-1.7,2.1c-0.7,0.6-1.6,1-2.6,1.3c-1,0.3-2.2,0.4-3.4,0.4
				c-1.6,0-2.9-0.2-3.9-0.5s-2-0.7-2.8-1.2c-0.1-0.1-0.3-0.1-0.6-0.1c-0.3,0-0.5-0.1-0.6-0.3c-0.4-0.6-0.6-1.2-0.8-2s-0.3-1.4-0.3-2
				c0-0.2,0.1-0.4,0.2-0.6c0.2-0.2,0.3-0.4,0.5-0.5c0.2-0.1,0.4-0.2,0.6-0.2s0.3,0,0.3,0.1c0.6,1.4,1.4,2.5,2.5,3.3s2.5,1.2,4.3,1.3
				c1.6,0,2.7-0.2,3.5-0.7c0.8-0.5,1.2-1.3,1.1-2.4c0-0.5-0.2-1-0.5-1.4s-0.7-0.8-1.2-1.1s-1-0.6-1.6-0.9c-0.6-0.3-1.2-0.5-1.8-0.8
				c-1.1-0.4-2.1-0.9-3-1.3c-0.9-0.4-1.8-0.9-2.5-1.5c-0.7-0.5-1.3-1.2-1.7-1.9c-0.4-0.7-0.6-1.6-0.6-2.6c0-1,0.2-1.8,0.7-2.6
				s1-1.4,1.8-2c0.7-0.5,1.6-1,2.6-1.2c1-0.3,2.1-0.4,3.2-0.4c1.4,0,2.7,0.1,3.8,0.4s2.1,0.7,2.9,1.2c0.1,0,0.2,0.1,0.2,0.1
				c0.1,0,0.1,0.1,0.2,0.2c0.1,0.3,0.2,0.6,0.3,1s0.2,0.8,0.3,1.2c0.1,0.4,0.1,0.8,0.2,1.2c0,0.4,0.1,0.7,0.1,0.9
				c0,0.2-0.1,0.4-0.2,0.5s-0.3,0.1-0.5,0.1c-0.2,0-0.4,0-0.5-0.1c-0.2-0.1-0.2-0.1-0.2-0.1c-0.2-0.8-0.5-1.4-0.9-1.9
				c-0.4-0.5-0.9-0.9-1.5-1.3c-0.6-0.3-1.2-0.6-1.8-0.7S274.6,11,274,11z"/>
		</g>
	</g>
	<g>
		<path class="st1" d="M26.1,36.9c-0.1,0-0.3,0-0.4,0c-0.1,0-0.2,0-0.4,0v3.3h-1.5v-8.4h2.3c0.4,0,0.7,0,1,0.1
			c0.3,0,0.5,0.1,0.8,0.2c0.5,0.2,1,0.5,1.3,0.8c0.3,0.4,0.4,0.9,0.4,1.5c0,0.4-0.1,0.8-0.2,1.1c-0.2,0.3-0.4,0.6-0.7,0.8
			c-0.3,0.2-0.7,0.4-1.1,0.5C27.2,36.8,26.7,36.9,26.1,36.9 M25.4,35.5c0.1,0,0.2,0,0.3,0c0.1,0,0.3,0,0.4,0c0.4,0,0.7,0,1-0.1
			c0.3-0.1,0.5-0.2,0.6-0.3c0.2-0.1,0.3-0.3,0.4-0.4c0.1-0.2,0.1-0.4,0.1-0.6c0-0.2-0.1-0.5-0.2-0.6c-0.1-0.2-0.3-0.3-0.6-0.4
			c-0.1-0.1-0.3-0.1-0.5-0.1c-0.2,0-0.5,0-0.8,0h-0.8V35.5z"/>
		<path class="st1" d="M42.3,38h-3l-0.8,2.1h-1.6l3.2-8.4h1.3l3.2,8.4H43L42.3,38z M40.7,33.7c-0.3,0.9-0.5,1.6-0.7,2.2l-0.3,0.7
			h2.1l-0.3-0.7C41.3,35.3,41,34.6,40.7,33.7L40.7,33.7z"/>
		<path class="st1" d="M57,37.7c0-0.2-0.1-0.4-0.2-0.5c-0.1-0.1-0.2-0.2-0.4-0.3c-0.2-0.1-0.4-0.2-0.6-0.2c-0.2-0.1-0.4-0.1-0.7-0.2
			c-0.3-0.1-0.6-0.2-0.9-0.3c-0.3-0.1-0.5-0.2-0.7-0.4c-0.2-0.2-0.4-0.4-0.5-0.7c-0.1-0.3-0.2-0.6-0.2-1c0-0.4,0.1-0.8,0.2-1.2
			c0.1-0.3,0.3-0.6,0.6-0.8c0.3-0.2,0.6-0.4,0.9-0.5c0.3-0.1,0.7-0.2,1.2-0.2c0.4,0,0.9,0,1.3,0.1c0.4,0.1,0.8,0.2,1.1,0.3v1.3
			c-0.4-0.2-0.8-0.3-1.2-0.4c-0.4-0.1-0.7-0.1-1.1-0.1c-0.5,0-0.9,0.1-1.1,0.3c-0.3,0.2-0.4,0.5-0.4,0.8c0,0.2,0,0.4,0.1,0.5
			c0.1,0.1,0.2,0.3,0.4,0.3c0.1,0.1,0.3,0.2,0.5,0.2c0.2,0.1,0.4,0.1,0.6,0.2c0.3,0.1,0.7,0.2,1,0.3c0.3,0.1,0.6,0.2,0.8,0.4
			c0.2,0.2,0.4,0.4,0.6,0.7c0.1,0.3,0.2,0.6,0.2,1.1c0,0.5-0.1,0.8-0.2,1.2c-0.2,0.3-0.4,0.6-0.7,0.8c-0.3,0.2-0.6,0.4-1.1,0.5
			c-0.4,0.1-0.9,0.2-1.4,0.2c-0.4,0-0.9,0-1.3-0.1c-0.4-0.1-0.8-0.2-1.1-0.4v-1.3c0.4,0.2,0.8,0.3,1.2,0.4c0.4,0.1,0.8,0.1,1.2,0.1
			c0.2,0,0.5,0,0.7-0.1c0.2,0,0.4-0.1,0.6-0.2c0.2-0.1,0.3-0.2,0.4-0.4C57,38.2,57,38,57,37.7"/>
		<path class="st1" d="M71.5,37.7c0-0.2,0-0.4-0.1-0.5c-0.1-0.1-0.2-0.2-0.4-0.3c-0.2-0.1-0.4-0.2-0.6-0.2c-0.2-0.1-0.4-0.1-0.7-0.2
			c-0.3-0.1-0.6-0.2-0.9-0.3c-0.3-0.1-0.5-0.2-0.7-0.4c-0.2-0.2-0.4-0.4-0.5-0.7c-0.1-0.3-0.2-0.6-0.2-1c0-0.4,0.1-0.8,0.2-1.2
			c0.1-0.3,0.3-0.6,0.6-0.8c0.3-0.2,0.6-0.4,0.9-0.5c0.3-0.1,0.7-0.2,1.2-0.2c0.4,0,0.9,0,1.3,0.1c0.4,0.1,0.8,0.2,1.1,0.3v1.3
			c-0.4-0.2-0.8-0.3-1.2-0.4c-0.4-0.1-0.7-0.1-1.1-0.1c-0.5,0-0.9,0.1-1.1,0.3c-0.3,0.2-0.4,0.5-0.4,0.8c0,0.2,0,0.4,0.1,0.5
			c0.1,0.1,0.2,0.3,0.3,0.3c0.1,0.1,0.3,0.2,0.5,0.2c0.2,0.1,0.4,0.1,0.6,0.2c0.3,0.1,0.7,0.2,1,0.3c0.3,0.1,0.6,0.2,0.8,0.4
			c0.2,0.2,0.4,0.4,0.6,0.7c0.1,0.3,0.2,0.6,0.2,1.1c0,0.5-0.1,0.8-0.2,1.2c-0.2,0.3-0.4,0.6-0.7,0.8c-0.3,0.2-0.6,0.4-1.1,0.5
			c-0.4,0.1-0.9,0.2-1.4,0.2c-0.4,0-0.9,0-1.3-0.1c-0.4-0.1-0.8-0.2-1-0.4v-1.3c0.4,0.2,0.8,0.3,1.2,0.4c0.4,0.1,0.8,0.1,1.2,0.1
			c0.2,0,0.5,0,0.7-0.1c0.2,0,0.4-0.1,0.6-0.2c0.2-0.1,0.3-0.2,0.4-0.4C71.4,38.2,71.5,38,71.5,37.7"/>
		<path class="st2" d="M83.7,27.2c-7.3,0-13.2-5.9-13.2-13.2c0-7.3,5.9-13.2,13.2-13.2c7.3,0,13.2,5.9,13.2,13.2
			C96.9,21.2,90.9,27.2,83.7,27.2 M83.7,8.9c-2.8,0-5,2.3-5,5c0,2.8,2.3,5,5,5c2.8,0,5-2.3,5-5C88.7,11.2,86.4,8.9,83.7,8.9"/>
		<polygon class="st3" points="16.8,1.7 0,19.1 5.6,24.9 16.6,13.5 27.8,24.9 33.4,19.1 		"/>
		<polygon class="st4" points="52,1.7 35.2,19.1 40.9,24.9 51.9,13.5 63,24.9 68.7,19.1 		"/>
	</g>
</g>
</svg>
